<?xml version="1.0" standalone="no"?>
<!DOCTYPE svg PUBLIC "-//W3C//DTD SVG 1.1//EN" "http://www.w3.org/Graphics/SVG/1.1/DTD/svg11.dtd" >
<svg xmlns="http://www.w3.org/2000/svg">
<metadata>Generated by IcoMoon</metadata>
<defs>
<font id="icomoon" horiz-adv-x="1024">
<font-face units-per-em="1024" ascent="960" descent="-64" />
<missing-glyph horiz-adv-x="1024" />
<glyph unicode="&#x20;" horiz-adv-x="512" d="" />
<glyph unicode="&#xe900;" glyph-name="air-conditioning" d="M768 61.44c-54.616 0-79.36 29.884-79.36 80.345v152.615h-46.080v-152.615c0-74.191 43.25-126.425 125.44-126.425v46.080zM256 61.44c54.616 0 79.36 29.884 79.36 80.345v152.615h46.080v-152.615c0-74.191-43.25-126.425-125.44-126.425v46.080zM76.8 780.8v-278.448l19.988-79.952h830.424l19.988 79.952v278.448h-870.4zM998.4 832v-332.8l-0.764-6.209-30.448-121.791h-910.376l-30.448 121.791-0.764 6.209v332.8h972.8zM153.6 550.4h512v-51.2h-512v51.2zM716.8 550.4h153.6v-51.2h-153.6v51.2zM486.4 294.4h51.2v-265.846h-51.2v265.846z" />
<glyph unicode="&#xe901;" glyph-name="awning" d="M94.796 678.371l166.824 0.752 44.905 178.477h-112.255l-99.474-179.229zM768 626.974c0.122-49.381 40.19-89.374 89.6-89.374s89.478 39.993 89.6 89.374h-179.199zM998.4 626.974c-0.122-77.658-63.113-140.574-140.8-140.574-47.62 0-89.719 23.64-115.2 59.825-25.481-36.185-67.58-59.825-115.2-59.825s-89.719 23.64-115.2 59.825c-25.481-36.185-67.58-59.825-115.2-59.825s-89.719 23.64-115.2 59.825c-25.481-36.185-67.58-59.825-115.2-59.825-77.648 0-140.615 62.854-140.8 140.458l-17.997-0.081 156.526 282.023h698.714l149.217-281.826h-13.661zM717.338 627.2h-467.652l0.149 0.669-173.035-0.78c0.060-49.434 40.152-89.489 89.6-89.489 49.485 0 89.6 40.115 89.6 89.6h51.2c0-49.485 40.115-89.6 89.6-89.6s89.6 40.115 89.6 89.6h51.2c0-49.485 40.115-89.6 89.6-89.6s89.6 40.115 89.6 89.6h0.538zM762.986 678.174h164.032l-95 179.426h-108.905l39.872-179.426zM313.513 678.4h172.887v179.2h-133.064l-39.822-179.2zM710.487 678.4l-39.822 179.2h-133.064v-179.2h172.887zM153.6 12.8v332.8h-51.2v-384h819.2v486.4h-51.2v-435.2zM524.423 411.796l36.204-36.204-217.223-217.223-36.204 36.204 217.223 217.223zM669.239 339.388l36.204-36.204-217.223-217.223-36.204 36.204 217.223 217.223z" />
<glyph unicode="&#xe902;" glyph-name="bathroom" d="M51.2 550.4h921.6v-51.2h-921.6v51.2zM281.6 448h51.2v-128h-51.2v128zM281.6 268.8h51.2v-128h-51.2v128zM281.6 89.6h51.2v-128h-51.2v128zM486.4 448h51.2v-128h-51.2v128zM486.4 268.8h51.2v-128h-51.2v128zM486.4 89.6h51.2v-128h-51.2v128zM691.2 448h51.2v-128h-51.2v128zM691.2 268.8h51.2v-128h-51.2v128zM691.2 89.6h51.2v-128h-51.2v128zM896 550.4c0 212.077-171.923 384-384 384s-384-171.923-384-384h51.2c0 183.8 149 332.8 332.8 332.8s332.8-149 332.8-332.8h51.2z" />
<glyph unicode="&#xe903;" glyph-name="battery" d="M76.8 729.6v-665.6h870.4v665.6h-870.4zM998.4 780.8v-768h-972.8v768h972.8zM153.6 576h153.6v51.2h-153.6zM716.8 576h153.6v51.2h-153.6zM512 371.2c-18.111 0-30.495 18.292-23.769 35.108l37.157 92.892h-63.841l-43.657-153.6h94.11c14.138 0 25.6-11.462 25.6-25.6v-70.757l60.978 121.957h-86.578zM640 422.4c19.031 0 31.408-20.027 22.897-37.049l-128-256c-12.081-24.162-48.497-15.565-48.497 11.449v153.6h-102.4c-16.993 0-29.271 16.253-24.625 32.599l58.209 204.8c3.128 11.007 13.182 18.601 24.625 18.601h120.991c18.111 0 30.495-18.292 23.769-35.108l-37.157-92.892h90.188zM819.2 524.8v153.6h-51.2v-153.6zM153.6 832h102.4v-76.8h51.2v128h-204.8v-128h51.2zM870.4 832v-76.8h51.2v128h-204.8v-128h51.2v76.8z" />
<glyph unicode="&#xe904;" glyph-name="bed" d="M179.2 908.8v-51.2h665.6v51.2h-665.6zM896 960v-153.6h-768v153.6h768zM179.2 678.4h665.6v128h-665.6v-128zM896 857.6v-230.4h-768v230.4h768zM153.6 627.197c-14.138 0-25.6-11.462-25.6-25.6v-511.993c0-14.138 11.462-25.6 25.6-25.6h716.8c14.138 0 25.6 11.462 25.6 25.6v511.993c0 14.138-11.462 25.6-25.6 25.6h-716.8zM153.6 678.397h716.8c42.415 0 76.8-34.385 76.8-76.8v-511.993c0-42.415-34.385-76.8-76.8-76.8h-716.8c-42.415 0-76.8 34.385-76.8 76.8v511.993c0 42.415 34.385 76.8 76.8 76.8zM640 704c0 14.138-11.462 25.6-25.6 25.6h-204.8c-14.138 0-25.6-11.462-25.6-25.6v-25.6h256v25.6zM409.6 780.8h204.8c42.415 0 76.8-34.385 76.8-76.8v-76.8h-358.4v76.8c0 42.415 34.385 76.8 76.8 76.8zM844.8-12.8h-665.6v51.2h-51.2v-102.4h768v102.4h-51.2z" />
<glyph unicode="&#xe905;" glyph-name="bicycle" d="M102.4 627.2h179.2v51.2h-179.2zM128.198 649.625l25.6-204.8 50.805 6.351-25.6 204.8zM204.8 64c-113.108 0-204.8 91.692-204.8 204.8s91.692 204.8 204.8 204.8c113.108 0 204.8-91.692 204.8-204.8s-91.692-204.8-204.8-204.8zM204.8 115.2c84.831 0 153.6 68.769 153.6 153.6s-68.769 153.6-153.6 153.6c-84.831 0-153.6-68.769-153.6-153.6s68.769-153.6 153.6-153.6zM185.715 500.043l486.4 128-13.030 49.514-486.4-128zM743.643 337.72l48.714 15.76-146.533 452.92h-159.424v-51.2h122.176zM768 89.6c-141.385 0-256 114.615-256 256s114.615 256 256 256c141.385 0 256-114.615 256-256s-114.615-256-256-256zM768 140.8c113.108 0 204.8 91.692 204.8 204.8s-91.692 204.8-204.8 204.8c-113.108 0-204.8-91.692-204.8-204.8s91.692-204.8 204.8-204.8z" />
<glyph unicode="&#xe906;" glyph-name="car-age" d="M256-12.8h-204.8v767.526c0 98.928 55.209 154.074 153.6 154.074h614.4c98.792 0 153.6-54.999 153.6-154.074v-767.526h-204.8v76.8h-512v-76.8zM921.6 38.4v716.326c0 70.838-31.925 102.874-102.4 102.874h-614.4c-70.127 0-102.4-32.236-102.4-102.874v-716.326h102.4v76.8h614.4v-76.8h102.4zM537.6 755.2h-51.2v-332.8h281.6v51.2h-230.4z" />
<glyph unicode="&#xe907;" glyph-name="car-air-conditioning" d="M512-38.4c-268.631 0-486.4 217.769-486.4 486.4s217.769 486.4 486.4 486.4c268.631 0 486.4-217.769 486.4-486.4s-217.769-486.4-486.4-486.4zM512 12.8c240.354 0 435.2 194.846 435.2 435.2s-194.846 435.2-435.2 435.2c-240.354 0-435.2-194.846-435.2-435.2s194.846-435.2 435.2-435.2zM512 268.8c-98.969 0-179.2 80.231-179.2 179.2s80.231 179.2 179.2 179.2c98.969 0 179.2-80.231 179.2-179.2s-80.231-179.2-179.2-179.2zM512 320c70.692 0 128 57.308 128 128s-57.308 128-128 128c-70.692 0-128-57.308-128-128s57.308-128 128-128zM670.621 474.097c133.88 26.776 225.379 134.912 225.379 255.503h-51.2c0-95.845-73.952-183.244-184.221-205.297l10.041-50.206zM538.097 289.379c26.776-133.88 134.912-225.379 255.503-225.379v51.2c-95.845 0-183.244 73.952-205.297 184.221l-50.206-10.041zM353.379 421.903c-133.88-26.776-225.379-134.912-225.379-255.503h51.2c0 95.845 73.952 183.244 184.221 205.297l-10.041 50.206zM485.903 606.621c-26.776 133.88-134.912 225.379-255.503 225.379v-51.2c95.845 0 183.244-73.952 205.297-184.221l50.206 10.041zM614.4 780.8v-128h51.2v76.8h76.8v128h-51.2v-76.8z" />
<glyph unicode="&#xe908;" glyph-name="chair" d="M84.114-37.486c-31.812 0-57.6 25.788-57.6 57.6v118.403c0 28.157 20.357 52.187 48.131 56.816l90.393 15.066c26.556 4.426 53.696 3.988 80.096-1.292l87.666-18.022h202.793c3.961 0 7.36 2.822 8.088 6.716 17.329 92.674 42.026 171.212 74.239 235.638 30.148 60.296 66.772 120.51 109.856 180.647 16.998 23.725 44.393 37.799 73.579 37.799h71.068c7.482 0 14.892-1.458 21.817-4.292 29.441-12.049 43.54-45.684 31.491-75.125-21.158-51.698-40.167-99.552-57.027-143.557-19.055-49.736-55.417-175.077-108.634-374.754-14.402-54.040-63.34-91.643-119.266-91.643h-556.691zM84.114 11.886h556.691c33.556 0 62.918 22.562 71.559 54.986 53.717 201.553 90.312 327.698 110.237 379.704 16.999 44.369 36.145 92.566 57.438 144.594 1.721 4.206-0.293 9.011-4.499 10.732-0.989 0.405-2.048 0.613-3.117 0.613h-71.068c-13.266 0-25.719-6.397-33.445-17.181-41.604-58.070-76.876-116.062-105.831-173.973-29.994-59.989-53.333-134.208-69.868-222.633-5.097-27.256-28.89-47.013-56.619-47.013l-207.634 0.479-92.507 18.501c-20.533 4.107-41.642 4.447-62.297 1.005l-90.393-15.066c-3.968-0.661-6.876-4.094-6.876-8.117v-118.403c0-4.545 3.684-8.229 8.229-8.229zM869.086 619.105l25.6 76.8-48.573 16.191-25.6-76.8zM804.886 844.912c-24.983-35.109-29.262-58.46-20.539-74.557 7.494-13.828 25.98-25.795 54.287-35.771 15.531-5.474 63.46-18.005 62.343-17.664 21.047-6.435 61.809 49.416 57.12 68.731-82.418 86.723-128.488 100.204-153.212 59.26zM821.616 686.295c-39.19 13.812-67.293 32.004-82.284 59.666-19.365 35.735-11.423 79.083 22.761 126.992 48.602 80.771 132.245 55.199 236.431-55.534l3.959-5.524c29.318-55.14-48.628-164.68-116.475-143.937 2.975-0.91-46.437 12.010-64.392 18.338z" />
<glyph unicode="&#xe909;" glyph-name="double-bed" d="M128 499.2v230.4c0 14.138 11.462 25.6 25.6 25.6h716.8c14.138 0 25.6-11.462 25.6-25.6v-230.4h51.2v230.4c0 42.415-34.385 76.8-76.8 76.8h-716.8c-42.415 0-76.8-34.385-76.8-76.8v-230.4h51.2zM972.8 448c0 14.138-11.462 25.6-25.6 25.6h-870.4c-14.138 0-25.6-11.462-25.6-25.6v-281.6h128v51.2h665.6v-51.2h128v281.6zM230.4 115.2h-230.4v332.8c0 42.415 34.385 76.8 76.8 76.8h870.4c42.415 0 76.8-34.385 76.8-76.8v-332.8h-230.4v51.2h-563.2v-51.2zM51.2 294.4h742.4v51.2h-742.4zM844.8 294.4h128v51.2h-128zM435.2 550.4c0 14.138-11.462 25.6-25.6 25.6h-179.2c-14.138 0-25.6-11.462-25.6-25.6v-25.6h230.4v25.6zM230.4 627.2h179.2c42.415 0 76.8-34.385 76.8-76.8v-76.8h-332.8v76.8c0 42.415 34.385 76.8 76.8 76.8zM819.2 550.4c0 14.138-11.462 25.6-25.6 25.6h-179.2c-14.138 0-25.6-11.462-25.6-25.6v-25.6h230.4v25.6zM614.4 627.2h179.2c42.415 0 76.8-34.385 76.8-76.8v-76.8h-332.8v76.8c0 42.415 34.385 76.8 76.8 76.8z" />
<glyph unicode="&#xe90a;" glyph-name="driver-license" d="M51.2 755.2v-614.4h921.6v614.4h-921.6zM51.2 806.4h921.6c28.277 0 51.2-22.923 51.2-51.2v-614.4c0-28.277-22.923-51.2-51.2-51.2h-921.6c-28.277 0-51.2 22.923-51.2 51.2v614.4c0 28.277 22.923 51.2 51.2 51.2zM281.6 448c-56.554 0-102.4 45.846-102.4 102.4s45.846 102.4 102.4 102.4c56.554 0 102.4-45.846 102.4-102.4s-45.846-102.4-102.4-102.4zM281.6 499.2c28.277 0 51.2 22.923 51.2 51.2s-22.923 51.2-51.2 51.2c-28.277 0-51.2-22.923-51.2-51.2s22.923-51.2 51.2-51.2zM512 627.2h358.4v-51.2h-358.4v51.2zM512 473.6h358.4v-51.2h-358.4v51.2zM512 320h358.4v-51.2h-358.4v51.2zM435.2 243.2c0 84.831-68.769 153.6-153.6 153.6s-153.6-68.769-153.6-153.6h51.2c0 56.554 45.846 102.4 102.4 102.4s102.4-45.846 102.4-102.4h51.2z" />
<glyph unicode="&#xe90b;" glyph-name="fuel-consumption" d="M512-38.4c-268.631 0-486.4 217.769-486.4 486.4s217.769 486.4 486.4 486.4c268.631 0 486.4-217.769 486.4-486.4s-217.769-486.4-486.4-486.4zM512 12.8c240.354 0 435.2 194.846 435.2 435.2s-194.846 435.2-435.2 435.2c-240.354 0-435.2-194.846-435.2-435.2s194.846-435.2 435.2-435.2zM806.933 204.8c-169.956 169.956-445.51 169.956-615.466 0l36.204-36.204c149.961 149.961 393.097 149.961 543.058 0l36.204 36.204zM486.679 857.6h50.641v-163.169h-50.641v163.169zM922.754 447.805v-50.641h-163.169v50.641h163.169zM101.246 397.163v50.641h163.169v-50.641h-163.169zM203.649 712.253l35.809 35.809 115.378-115.378-35.809-35.809-115.378 115.378zM766.714 764.517l36.204-36.204-289.631-289.631-36.204 36.204 289.631 289.631z" />
<glyph unicode="&#xe90c;" glyph-name="fuel-heating" d="M307.2 499.2c-14.138 0-25.6-11.462-25.6-25.6v-460.8c0-14.138 11.462-25.6 25.6-25.6s25.6 11.462 25.6 25.6v460.8c0 14.138-11.462 25.6-25.6 25.6zM307.2 550.4c42.415 0 76.8-34.385 76.8-76.8v-460.8c0-42.415-34.385-76.8-76.8-76.8s-76.8 34.385-76.8 76.8v460.8c0 42.415 34.385 76.8 76.8 76.8zM512 499.2c-14.138 0-25.6-11.462-25.6-25.6v-460.8c0-14.138 11.462-25.6 25.6-25.6s25.6 11.462 25.6 25.6v460.8c0 14.138-11.462 25.6-25.6 25.6zM512 550.4c42.415 0 76.8-34.385 76.8-76.8v-460.8c0-42.415-34.385-76.8-76.8-76.8s-76.8 34.385-76.8 76.8v460.8c0 42.415 34.385 76.8 76.8 76.8zM716.8 499.2c-14.138 0-25.6-11.462-25.6-25.6v-460.8c0-14.138 11.462-25.6 25.6-25.6s25.6 11.462 25.6 25.6v460.8c0 14.138-11.462 25.6-25.6 25.6zM716.8 550.4c42.415 0 76.8-34.385 76.8-76.8v-460.8c0-42.415-34.385-76.8-76.8-76.8s-76.8 34.385-76.8 76.8v460.8c0 42.415 34.385 76.8 76.8 76.8zM384 89.6h51.2v307.2h-51.2v-307.2zM332.8 448h153.6v-409.6h-153.6v409.6zM179.2 396.8v-307.2h51.2v307.2h-51.2zM128 448h153.6v-409.6h-153.6v409.6zM588.8 89.6h51.2v307.2h-51.2v-307.2zM537.6 448h153.6v-409.6h-153.6v409.6zM793.6 89.6h51.2v307.2h-51.2v-307.2zM742.4 448h153.6v-409.6h-153.6v409.6zM256 960v-51.2c-14.138 0-25.6-11.462-25.6-25.6s11.462-25.6 25.6-25.6v-51.2c-42.415 0-76.8 34.385-76.8 76.8s34.385 76.8 76.8 76.8zM256 755.2v-51.2c-14.138 0-25.6-11.462-25.6-25.6s11.462-25.6 25.6-25.6v-51.2c-42.415 0-76.8 34.385-76.8 76.8s34.385 76.8 76.8 76.8zM256 704v51.2c14.138 0 25.6 11.462 25.6 25.6s-11.462 25.6-25.6 25.6v51.2c42.415 0 76.8-34.385 76.8-76.8s-34.385-76.8-76.8-76.8zM512 960v-51.2c-14.138 0-25.6-11.462-25.6-25.6s11.462-25.6 25.6-25.6v-51.2c-42.415 0-76.8 34.385-76.8 76.8s34.385 76.8 76.8 76.8zM512 755.2v-51.2c-14.138 0-25.6-11.462-25.6-25.6s11.462-25.6 25.6-25.6v-51.2c-42.415 0-76.8 34.385-76.8 76.8s34.385 76.8 76.8 76.8zM512 704v51.2c14.138 0 25.6 11.462 25.6 25.6s-11.462 25.6-25.6 25.6v51.2c42.415 0 76.8-34.385 76.8-76.8s-34.385-76.8-76.8-76.8zM768 960v-51.2c-14.138 0-25.6-11.462-25.6-25.6s11.462-25.6 25.6-25.6v-51.2c-42.415 0-76.8 34.385-76.8 76.8s34.385 76.8 76.8 76.8zM768 755.2v-51.2c-14.138 0-25.6-11.462-25.6-25.6s11.462-25.6 25.6-25.6v-51.2c-42.415 0-76.8 34.385-76.8 76.8s34.385 76.8 76.8 76.8zM768 704v51.2c14.138 0 25.6 11.462 25.6 25.6s-11.462 25.6-25.6 25.6v51.2c42.415 0 76.8-34.385 76.8-76.8s-34.385-76.8-76.8-76.8z" />
<glyph unicode="&#xe90d;" glyph-name="fuel-tank-capacity" d="M281.6 883.2v-128h-102.4v-742.4h665.6v603.796l-138.604 138.604h-296.596v128h-128zM230.4 806.4v128h230.4v-128h266.604l168.596-168.596v-676.204h-768v844.8h102.4zM358.4 115.2h307.2v51.2h-307.2zM439.592 495.035c-39.99-39.99-39.99-104.826 0-144.815s104.826-39.99 144.815 0c39.99 39.99 39.99 104.826 0 144.815l-72.408 72.408-72.408-72.408zM403.388 531.239l108.612 108.612 108.612-108.612c59.985-59.985 59.985-157.239 0-217.223s-157.239-59.985-217.223 0c-59.985 59.985-59.985 157.239 0 217.223z" />
<glyph unicode="&#xe90e;" glyph-name="fuel" d="M640 877.021c0 3.413-2.767 6.179-6.179 6.179h-448.441c-3.413 0-6.179-2.767-6.179-6.179v-864.221h460.8v864.221zM185.379 934.4h448.441c31.69 0 57.379-25.69 57.379-57.379v-915.421h-563.2v915.421c0 31.69 25.69 57.379 57.379 57.379zM307.2 729.6v-102.4h204.8v102.4h-204.8zM297.49 780.8h224.221c22.914 0 41.49-18.576 41.49-41.49v-121.821c0-22.914-18.576-41.49-41.49-41.49h-224.221c-22.914 0-41.49 18.576-41.49 41.49v121.821c0 22.914 18.576 41.49 41.49 41.49zM76.8-38.4h665.6c14.138 0 25.6 11.462 25.6 25.6s-11.462 25.6-25.6 25.6h-665.6c-14.138 0-25.6-11.462-25.6-25.6s11.462-25.6 25.6-25.6zM640 601.6h96.221c3.413 0 6.179-2.767 6.179-6.179v-371.641c0-31.69 25.69-57.379 57.379-57.379h90.041c31.69 0 57.379 25.69 57.379 57.379v415.857c0 15.218-6.045 29.813-16.806 40.573l-93.092 93.092-36.204-36.204 93.092-93.092c1.159-1.159 1.81-2.731 1.81-4.369v-415.857c0-3.413-2.767-6.179-6.179-6.179h-90.041c-3.413 0-6.179 2.767-6.179 6.179v371.641c0 31.69-25.69 57.379-57.379 57.379h-96.221v-51.2z" />
<glyph unicode="&#xe90f;" glyph-name="generator" d="M896 729.6v-460.8h-128v-51.2h179.2v563.2h-179.2v-51.2h128zM179.2 729.6h76.8v51.2h-128v-563.2h128.078v51.2h-76.878v460.8zM921.6 550.4h76.8v-102.4h-76.8v102.4zM76.8 576v-153.6h51.2v153.6h-51.2zM179.2 627.2v-256h-153.6v256h153.6zM281.6 832v-691.2h460.8v691.2h-460.8zM793.6 883.2v-793.6h-563.2v793.6h563.2zM512.015 524.8c-18.111 0-30.495 18.292-23.769 35.108l37.157 92.892h-63.841l-43.657-153.6h94.11c14.138 0 25.6-11.462 25.6-25.6v-70.757l60.978 121.957h-86.578zM640.015 576c19.031 0 31.408-20.027 22.897-37.049l-128-256c-12.081-24.162-48.497-15.565-48.497 11.449v153.6h-102.4c-16.993 0-29.271 16.253-24.625 32.599l58.209 204.8c3.128 11.007 13.182 18.601 24.625 18.601h120.991c18.111 0 30.495-18.292 23.769-35.108l-37.157-92.892h90.188zM230.4 89.6v-51.2h563.2v51.2h-563.2zM844.8 140.8v-153.6h-665.6v153.6h665.6z" />
<glyph unicode="&#xe910;" glyph-name="height-inside-he-car" d="M256-12.8h-204.8v767.526c0 98.928 55.209 154.074 153.6 154.074h614.4c98.792 0 153.6-54.999 153.6-154.074v-767.526h-204.8v76.8h-512v-76.8zM921.6 38.4v716.326c0 70.838-31.925 102.874-102.4 102.874h-614.4c-70.127 0-102.4-32.236-102.4-102.874v-716.326h102.4v76.8h614.4v-76.8h102.4zM486.4 780.8v-563.2h51.2v563.2zM453.302 312.502l-36.204-36.204 94.902-94.902 94.902 94.902-36.204 36.204-58.698-58.698zM453.484 677.854l-36.204 36.204 94.902 94.902 94.902-94.902-36.204-36.204-58.698 58.698z" />
<glyph unicode="&#xe911;" glyph-name="microwave" d="M51.2 729.6v-563.2h921.6v563.2h-921.6zM1024 780.8v-665.6h-1024v665.6h1024zM153.6 627.2v-358.4h460.8v358.4h-460.8zM665.6 678.4v-460.8h-563.2v460.8h563.2zM361.83 549.481l44.341-25.6-102.4-177.362-44.341 25.6 102.4 177.362zM464.23 549.481l44.341-25.6-102.4-177.362-44.341 25.6 102.4 177.362zM716.8 755.2v-614.4h51.2v614.4zM870.4 524.8c-42.415 0-76.8 34.385-76.8 76.8s34.385 76.8 76.8 76.8c42.415 0 76.8-34.385 76.8-76.8s-34.385-76.8-76.8-76.8zM870.4 576c14.138 0 25.6 11.462 25.6 25.6s-11.462 25.6-25.6 25.6c-14.138 0-25.6-11.462-25.6-25.6s11.462-25.6 25.6-25.6z" />
<glyph unicode="&#xe912;" glyph-name="refrigerator" d="M230.4 908.8c-14.138 0-25.6-11.462-25.6-25.6v-870.4c0-14.138 11.462-25.6 25.6-25.6h563.2c14.138 0 25.6 11.462 25.6 25.6v870.4c0 14.138-11.462 25.6-25.6 25.6h-563.2zM230.4 960h563.2c42.415 0 76.8-34.385 76.8-76.8v-870.4c0-42.415-34.385-76.8-76.8-76.8h-563.2c-42.415 0-76.8 34.385-76.8 76.8v870.4c0 42.415 34.385 76.8 76.8 76.8zM204.8 524.8h588.8v51.2h-588.8zM691.2 396.8v307.2h-51.2v-307.2z" />
<glyph unicode="&#xe913;" glyph-name="satellite" d="M537.6 140.8h-51.2v-149.686l174.991-29.165 8.417 50.503-132.209 22.035zM178.727 805.963l-1.613 1.613 4.376 4.376c20.835 44.268 49.546 85.75 86.134 122.337l18.102 18.102 289.631-289.631 54.306 54.306 36.204-36.204-54.306-54.306 289.631-289.631-18.102-18.102c-36.588-36.588-78.069-65.299-122.337-86.134l-4.376-4.376-1.613 1.613c-160.262-72.459-355.416-42.826-487.139 88.897s-161.355 326.877-88.897 487.139zM241.181 815.917l334.176-334.176-36.204-36.204-321.343 321.343c-53.999-137.799-25.326-300.509 86.018-411.853s274.054-140.017 411.853-86.018l-104.12 104.12 36.204 36.204 116.952-116.952c22.279 12.641 43.562 27.687 63.473 45.138l-541.87 541.87c-17.451-19.911-32.498-41.195-45.138-63.473zM683.968 735.168c-19.995 19.995-19.995 52.413 0 72.408s52.413 19.995 72.408 0c19.995-19.995 19.995-52.413 0-72.408s-52.413-19.995-72.408 0zM507.791 38.052l-153.6-25.6 8.417-50.503 153.6 25.6z" />
<glyph unicode="&#xe914;" glyph-name="sink" d="M102.4 499.2v-307.2h819.2v307.2h-819.2zM102.4 550.4h819.2c28.277 0 51.2-22.923 51.2-51.2v-307.2c0-28.277-22.923-51.2-51.2-51.2h-819.2c-28.277 0-51.2 22.923-51.2 51.2v307.2c0 28.277 22.923 51.2 51.2 51.2zM716.8 140.8v-128c0-14.138-11.462-25.6-25.6-25.6s-25.6 11.462-25.6 25.6h-51.2c0-42.415 34.385-76.8 76.8-76.8s76.8 34.385 76.8 76.8v128h-51.2zM204.8 38.4h384c14.138 0 25.6-6.749 25.6-25.6h51.2c0 56.554-34.385 76.8-76.8 76.8h-384v-51.2zM230.4 524.8v281.6c0 42.415 34.385 76.8 76.8 76.8s76.8-34.385 76.8-76.8h51.2c0 70.692-57.308 128-128 128s-128-57.308-128-128v-281.6h51.2z" />
<glyph unicode="&#xe915;" glyph-name="stove" d="M102.4 832c-14.138 0-25.6-11.462-25.6-25.6v-716.8c0-14.138 11.462-25.6 25.6-25.6h819.2c14.138 0 25.6 11.462 25.6 25.6v716.8c0 14.138-11.462 25.6-25.6 25.6h-819.2zM102.4 883.2h819.2c42.415 0 76.8-34.385 76.8-76.8v-716.8c0-42.415-34.385-76.8-76.8-76.8h-819.2c-42.415 0-76.8 34.385-76.8 76.8v716.8c0 42.415 34.385 76.8 76.8 76.8zM716.8 166.4h153.6v-51.2h-153.6v51.2zM512 166.4c-155.523 0-281.6 126.077-281.6 281.6s126.077 281.6 281.6 281.6c155.523 0 281.6-126.077 281.6-281.6s-126.077-281.6-281.6-281.6zM512 217.6c127.246 0 230.4 103.154 230.4 230.4s-103.154 230.4-230.4 230.4c-127.246 0-230.4-103.154-230.4-230.4s103.154-230.4 230.4-230.4zM512 345.6c-56.554 0-102.4 45.846-102.4 102.4s45.846 102.4 102.4 102.4c56.554 0 102.4-45.846 102.4-102.4s-45.846-102.4-102.4-102.4zM512 396.8c28.277 0 51.2 22.923 51.2 51.2s-22.923 51.2-51.2 51.2c-28.277 0-51.2-22.923-51.2-51.2s22.923-51.2 51.2-51.2zM486.4 755.2v-167.564h51.2v167.564h-51.2zM819.2 473.6h-167.564v-51.2h167.564v51.2zM537.6 140.8v167.564h-51.2v-167.564h51.2zM204.8 422.4h167.564v51.2h-167.564v-51.2z" />
<glyph unicode="&#xe916;" glyph-name="table" d="M51.2 678.4v102.4h921.6v-102.4h-256l-51.2-51.2h358.4v204.8h-1024v-204.8h793.6v51.2zM102.4 652.8v-588.8h51.2v588.8zM153.6 550.4h716.8v-51.2h-716.8v51.2zM870.4 652.8v-588.8h51.2v588.8z" />
<glyph unicode="&#xe917;" glyph-name="transmission" d="M460.8 755.2v-614.4h51.2v614.4zM256 755.2v-614.4h51.2v614.4zM665.6 755.2v-332.8h51.2v332.8zM204.8 857.6c-56.554 0-102.4-45.846-102.4-102.4v-614.4c0-56.554 45.846-102.4 102.4-102.4h614.4c56.554 0 102.4 45.846 102.4 102.4v614.4c0 56.554-45.846 102.4-102.4 102.4h-614.4zM204.8 908.8h614.4c84.831 0 153.6-68.769 153.6-153.6v-614.4c0-84.831-68.769-153.6-153.6-153.6h-614.4c-84.831 0-153.6 68.769-153.6 153.6v614.4c0 84.831 68.769 153.6 153.6 153.6zM281.6 422.4h409.6v51.2h-409.6zM610.202 360.141h97.69c22.426 0 40.243-4.915 53.146-15.053 13.517-11.059 20.582-27.034 20.582-47.923 0-11.366-3.072-21.504-9.216-30.413-6.758-9.83-16.282-16.282-27.955-19.354 19.046-4.915 29.798-17.51 32.256-39.014l3.686-35.328c1.229-13.517 5.837-24.269 13.21-32.256h-39.014c-5.222 6.758-8.294 16.282-9.523 28.57l-2.765 27.034c-1.229 11.981-4.915 20.582-11.059 25.805-6.451 5.53-15.974 7.987-28.262 7.987h-56.832v-89.395h-35.942v219.341zM646.144 329.421v-68.506h56.832c14.131 0 24.883 3.072 32.256 8.909 6.758 6.144 10.138 14.746 10.138 25.805 0 11.981-3.379 20.582-10.138 25.805-6.758 5.53-17.51 7.987-32.256 7.987h-56.832z" />
<glyph unicode="&#xe918;" glyph-name="tv" d="M51.2 806.4v-614.4h921.6v614.4h-921.6zM1024 857.6v-716.8h-1024v716.8h1024zM102.4 243.2h819.2v51.2h-819.2zM537.6 166.4h-51.2v-124.086l174.991-29.165 8.417 50.503-132.209 22.035zM507.791 89.252l-153.6-25.6 8.417-50.503 153.6 25.6z" />
<glyph unicode="&#xe919;" glyph-name="vehicle-height" d="M793.6 64v51.2h-588.8v-76.8h-102.4v716.326c0 70.637 32.273 102.874 102.4 102.874h614.4v51.2h-614.4c-98.391 0-153.6-55.146-153.6-154.074v-767.526h204.8v76.8h537.6zM896 857.6v-793.6h51.2v793.6zM862.902 133.302l-36.204-36.204 94.902-94.902 94.902 94.902-36.204 36.204-58.698-58.698zM862.902 770.196l-36.204 36.204 94.902 94.902 94.902-94.902-36.204-36.204-58.698 58.698z" />
<glyph unicode="&#xe91a;" glyph-name="vehicle-length" d="M51.2 466.258l109.069 174.51c4.678 7.485 12.882 12.032 21.709 12.032h192.244l51.2 102.4h547.378v-486.4c0-14.138-11.462-25.6-25.6-25.6v-51.2c42.415 0 76.8 34.385 76.8 76.8v537.6h-630.222l-51.2-102.4h-160.601c-26.48 0-51.092-13.641-65.126-36.096l-116.851-186.962v-288.942h76.8v51.2h-25.6v223.058zM384 192h256v51.2h-256zM844.8 448h-665.6v-51.2h665.6zM274.102 481.098l-36.204 36.204-94.902-94.902 94.902-94.902 36.204 36.204-58.698 58.698zM841.694 422.4l-58.698 58.698 36.204 36.204 94.902-94.902-94.902-94.902-36.204 36.204zM128 192v-25.6c0-56.554 45.846-102.4 102.4-102.4s102.4 45.846 102.4 102.4v25.6h-51.2v-25.6c0-28.277-22.923-51.2-51.2-51.2s-51.2 22.923-51.2 51.2v25.6h-51.2zM691.2 192v-25.6c0-56.554 45.846-102.4 102.4-102.4s102.4 45.846 102.4 102.4v25.6h-51.2v-25.6c0-28.277-22.923-51.2-51.2-51.2s-51.2 22.923-51.2 51.2v25.6h-51.2z" />
<glyph unicode="&#xe91b;" glyph-name="vehicle-width" d="M256-12.8h-204.8v767.526c0 98.928 55.209 154.074 153.6 154.074h614.4c98.792 0 153.6-54.999 153.6-154.074v-767.526h-204.8v76.8h-512v-76.8zM921.6 38.4v716.326c0 70.838-31.925 102.874-102.4 102.874h-614.4c-70.127 0-102.4-32.236-102.4-102.874v-716.326h102.4v76.8h614.4v-76.8h102.4zM793.6 473.6h-563.2v-51.2h563.2zM325.302 506.698l-36.204 36.204-94.902-94.902 94.902-94.902 36.204 36.204-58.698 58.698zM700.928 506.698l36.204 36.204 94.902-94.902-94.902-94.902-36.204 36.204 58.698 58.698z" />
<glyph unicode="&#xe91c;" glyph-name="water" d="M384 780.8v76.8h-102.4v-76.8h-153.6v-742.4c343.841 0 599.841 0 768 0 0.651 0 0.651-17.067 0-51.2h-768c-28.277 0-51.2 22.923-51.2 51.2v793.6h153.6v76.8h204.8v-76.8h512v-793.6c0-28.277-22.923-51.2-51.2-51.2v0 793.6h-512zM299.702 279.041l-36.204-36.204 40.596-40.596c29.992-29.992 78.619-29.992 108.612 0l4.392 4.392c9.997 9.997 26.206 9.997 36.204 0l4.392-4.392c29.992-29.992 78.619-29.992 108.612 0l4.392 4.392c9.997 9.997 26.206 9.997 36.204 0l4.392-4.392c29.992-29.992 78.619-29.992 108.612 0l40.596 40.596-36.204 36.204-40.596-40.596c-9.997-9.997-26.206-9.997-36.204 0l-4.392 4.392c-29.992 29.992-78.619 29.992-108.612 0l-4.392-4.392c-9.997-9.997-26.206-9.997-36.204 0l-4.392 4.392c-29.992 29.992-78.619 29.992-108.612 0l-4.392-4.392c-9.997-9.997-26.206-9.997-36.204 0l-40.596 40.596zM299.702 471.95l-36.204-36.204 40.596-40.596c29.992-29.992 78.619-29.992 108.612 0l4.392 4.392c9.997 9.997 26.206 9.997 36.204 0l4.392-4.392c29.992-29.992 78.619-29.992 108.612 0l4.392 4.392c9.997 9.997 26.206 9.997 36.204 0l4.392-4.392c29.992-29.992 78.619-29.992 108.612 0l40.596 40.596-36.204 36.204-40.596-40.596c-9.997-9.997-26.206-9.997-36.204 0l-4.392 4.392c-29.992 29.992-78.619 29.992-108.612 0l-4.392-4.392c-9.997-9.997-26.206-9.997-36.204 0l-4.392 4.392c-29.992 29.992-78.619 29.992-108.612 0l-4.392-4.392c-9.997-9.997-26.206-9.997-36.204 0l-40.596 40.596zM299.702 652.8l-36.204-36.204 40.596-40.596c29.992-29.992 78.619-29.992 108.612 0l4.392 4.392c9.997 9.997 26.206 9.997 36.204 0l4.392-4.392c29.992-29.992 78.619-29.992 108.612 0l40.596 40.596-36.204 36.204-40.596-40.596c-9.997-9.997-26.206-9.997-36.204 0l-4.392 4.392c-29.992 29.992-78.619 29.992-108.612 0l-4.392-4.392c-9.997-9.997-26.206-9.997-36.204 0l-40.596 40.596z" />
<glyph unicode="&#xe91d;" glyph-name="wc" d="M972.8 422.4v-84.532c0-166.649-114.108-310.595-273.98-349.927l-6.116-0.741h-382.467l-7.746 1.2c-144.745 45.953-246.597 178.702-251.134 332.966-0.104 3.531-0.156 7.062-0.156 10.595v576.84h358.4v-486.4h563.2zM921.6 337.868v33.332h-563.2v486.4h-256v-525.64c0-3.030 0.045-6.060 0.134-9.089 3.854-131.032 89.55-243.98 211.75-284.471h375.255c135.553 34.765 232.061 157.53 232.061 299.468zM102.4 704h256v51.2h-256zM460.8 448h460.8v51.2h-460.8z" />
<glyph unicode="&#xe91e;" glyph-name="window-screen" d="M102.4 908.8h819.2v-51.2h-819.2v51.2zM102.4 38.4h819.2v-51.2h-819.2v51.2zM128.511 203.115l40.085 40.085-39.902 39.902 36.204 36.204 39.902-39.902 41.108 41.108 36.204-36.204-41.108-41.108 41.291-41.291-36.204-36.204-41.291 41.291-40.085-40.085-36.204 36.204zM471.915 166.911l-36.204 36.204 40.085 40.085-39.902 39.902 36.204 36.204 39.902-39.902 41.108 41.108 36.204-36.204-41.108-41.108 41.291-41.291-36.204-36.204-41.291 41.291-40.085-40.085zM435.711 130.708l-41.108-41.108 58.698-58.698-36.204-36.204-58.698 58.698-58.698-58.698-36.204 36.204 58.698 58.698-39.902 39.902 36.204 36.204 39.902-39.902 41.108 41.108 36.204-36.204zM282.111 356.715l40.085 40.085-39.902 39.902 36.204 36.204 39.902-39.902 41.108 41.108 36.204-36.204-41.108-41.108 41.291-41.291-36.204-36.204-41.291 41.291-40.085-40.085-36.204 36.204zM128.511 510.315l40.085 40.085-39.902 39.902 36.204 36.204 39.902-39.902 41.108 41.108 36.204-36.204-41.108-41.108 41.291-41.291-36.204-36.204-41.291 41.291-40.085-40.085-36.204 36.204zM625.515 320.511l-36.204 36.204 40.085 40.085-39.902 39.902 36.204 36.204 39.902-39.902 41.108 41.108 36.204-36.204-41.108-41.108 41.291-41.291-36.204-36.204-41.291 41.291-40.085-40.085zM435.711 510.315l40.085 40.085-39.902 39.902 36.204 36.204 39.902-39.902 41.108 41.108 36.204-36.204-41.108-41.108 41.291-41.291-36.204-36.204-41.291 41.291-40.085-40.085-36.204 36.204zM779.115 166.911l-36.204 36.204 40.085 40.085-39.902 39.902 36.204 36.204 39.902-39.902 41.108 41.108 36.204-36.204-41.108-41.108 41.291-41.291-36.204-36.204-41.291 41.291-40.085-40.085zM742.911 130.708l-41.108-41.108 58.698-58.698-36.204-36.204-58.698 58.698-58.698-58.698-36.204 36.204 58.698 58.698-39.902 39.902 36.204 36.204 39.902-39.902 41.108 41.108 36.204-36.204zM282.111 663.915l40.085 40.085-39.902 39.902 36.204 36.204 39.902-39.902 41.108 41.108 36.204-36.204-41.108-41.108 41.291-41.291-36.204-36.204-41.291 41.291-40.085-40.085-36.204 36.204zM128.511 817.515l40.085 40.085-7.498 7.498 36.204 36.204 7.498-7.498 7.498 7.498 36.204-36.204-7.498-7.498 41.291-41.291-36.204-36.204-41.291 41.291-40.085-40.085-36.204 36.204zM779.115 474.111l-36.204 36.204 40.085 40.085-39.902 39.902 36.204 36.204 39.902-39.902 41.108 41.108 36.204-36.204-41.108-41.108 41.291-41.291-36.204-36.204-41.291 41.291-40.085-40.085zM589.311 663.915l40.085 40.085-39.902 39.902 36.204 36.204 39.902-39.902 41.108 41.108 36.204-36.204-41.108-41.108 41.291-41.291-36.204-36.204-41.291 41.291-40.085-40.085-36.204 36.204zM435.711 817.515l40.085 40.085-7.498 7.498 36.204 36.204 7.498-7.498 7.498 7.498 36.204-36.204-7.498-7.498 41.291-41.291-36.204-36.204-41.291 41.291-40.085-40.085-36.204 36.204zM742.911 817.515l40.085 40.085-7.498 7.498 36.204 36.204 7.498-7.498 7.498 7.498 36.204-36.204-7.498-7.498 41.291-41.291-36.204-36.204-41.291 41.291-40.085-40.085-36.204 36.204z" />
</font>
</defs>
</svg>
