<?xml version="1.0" standalone="no"?>
<!DOCTYPE svg PUBLIC "-//W3C//DTD SVG 1.1//EN" "http://www.w3.org/Graphics/SVG/1.1/DTD/svg11.dtd" >
<svg xmlns="http://www.w3.org/2000/svg">
<metadata>Generated by IcoMoon</metadata>
<defs>
<font id="icomoon" horiz-adv-x="1024">
<font-face units-per-em="1024" ascent="960" descent="-64" />
<missing-glyph horiz-adv-x="1024" />
<glyph unicode="&#x20;" horiz-adv-x="512" d="" />
<glyph unicode="&#xe900;" glyph-name="add" d="M537.6 473.6h486.4v-51.2h-486.4v-486.4h-51.2v486.4h-486.4v51.2h486.4v486.4h51.2v-486.4z" />
<glyph unicode="&#xe901;" glyph-name="address" d="M801.631 840.031v0c159.959-159.959 159.959-419.303 0-579.262l-289.631-289.631-289.631 289.631c-159.959 159.959-159.959 419.303 0 579.262v0 0c159.959 159.959 419.303 159.959 579.262 0v0zM512 345.6c113.108 0 204.8 91.692 204.8 204.8s-91.692 204.8-204.8 204.8c-113.108 0-204.8-91.692-204.8-204.8s91.692-204.8 204.8-204.8z" />
<glyph unicode="&#xe902;" glyph-name="adress-large" d="M789.718 836.871l0.573-0.573c152.516-152.516 152.516-399.794 0-552.31l-275.009-275.009-276.728 276.728c-152.2 152.2-152.2 398.964 0 551.164v0 0c152.2 152.2 398.964 152.2 551.164 0v0zM514.71 387.502c95.862 0 173.574 77.551 173.574 173.214s-77.712 173.214-173.574 173.214c-95.862 0-173.574-77.551-173.574-173.214s77.712-173.214 173.574-173.214z" />
<glyph unicode="&#xe903;" glyph-name="answer" d="M412.684 371.2l99.316 70.94 99.316-70.94h-198.632zM700.122 370.687l-188.122 134.373-188.122-134.373c-38.212-4.421-67.878-36.89-67.878-76.287v-51.2c0-42.415 34.385-76.8 76.8-76.8h358.4c42.415 0 76.8 34.385 76.8 76.8v51.2c0 39.398-29.666 71.867-67.878 76.287zM307.2 960h409.6c169.662 0 307.2-137.538 307.2-307.2v-716.8h-716.8c-169.662 0-307.2 137.538-307.2 307.2v409.6c0 169.662 137.538 307.2 307.2 307.2zM256 704v-204.8h51.2v204.8h-51.2zM307.2 601.6h153.6v51.2h-153.6v-51.2zM563.2 704v-204.8h51.2v204.8h-51.2zM614.4 601.6h153.6v51.2h-153.6v-51.2zM358.4 499.2h102.4v51.2h-102.4v-51.2zM665.6 499.2h102.4v51.2h-102.4v-51.2zM332.8 320h358.4c14.138 0 25.6-11.462 25.6-25.6v-51.2c0-14.138-11.462-25.6-25.6-25.6h-358.4c-14.138 0-25.6 11.462-25.6 25.6v51.2c0 14.138 11.462 25.6 25.6 25.6z" />
<glyph unicode="&#xe904;" glyph-name="ask" d="M867.648-7.111h-241.87v113.778h127.908l-0.161 99.182 14.303 16.178c54.791 61.975 85.506 141.514 85.506 225.973 0 188.513-152.82 341.333-341.333 341.333s-341.333-152.82-341.333-341.333c0-123.646 66.252-235.676 171.547-296.188 34.921-20.068 73.019-33.755 112.897-40.435v52.178h113.778v-170.667h-56.889c-80.519 0-158.113 20.987-226.478 60.275-140.26 80.605-228.634 230.042-228.634 394.836 0 251.351 203.76 455.111 455.111 455.111s455.111-203.76 455.111-455.111c0-104.919-35.699-204.425-99.74-284.346l0.277-170.765zM568.889 220.444h-113.778v89.571c0 63.658 35.429 122.026 91.903 151.404 3.058 1.591 4.712 2.745 5.054 3.085 10.733 10.65 16.821 24.963 16.821 40.384 0 31.419-25.47 56.889-56.889 56.889s-56.889-25.47-56.889-56.889h-113.778c0 94.257 76.41 170.667 170.667 170.667s170.667-76.41 170.667-170.667c0-46.063-18.411-89.349-50.459-121.149-9.132-9.062-20.058-16.687-32.685-23.256-18.824-9.793-30.634-29.249-30.634-50.468v-89.571z" />
<glyph unicode="&#xe905;" d="M64 768h256l64 128h320l64-128h192c35.346 0 64-28.654 64-64v-640c0-35.346-28.654-64-64-64h-896c-35.346 0-64 28.654-64 64v640c0 35.346 28.654 64 64 64z" />
<glyph unicode="&#xe906;" d="M1024 704v-640c0-35.346-28.654-64-64-64h-672l461.458 804.617 18.542-36.617h192c35.346 0 64-28.654 64-64z" />
<glyph unicode="&#xe907;" d="M544 128c-141.385 0-256 114.615-256 256s114.615 256 256 256c141.385 0 256-114.615 256-256s-114.615-256-256-256zM544 192c106.039 0 192 85.961 192 192s-85.961 192-192 192c-106.039 0-192-85.961-192-192s85.961-192 192-192z" />
<glyph unicode="&#xe908;" d="M546.479 510.359c-79.529 0-144-64.471-144-144h32c0 61.856 50.144 112 112 112v32z" />
<glyph unicode="&#xe909;" d="M96 672h160v-64h-160v64z" />
<glyph unicode="&#xe90a;" glyph-name="chevron-right" d="M613.49 448l-274.745 274.745 90.51 90.51 365.255-365.255-365.255-365.255-90.51 90.51z" />
<glyph unicode="&#xe90b;" glyph-name="clock" d="M512 64c212.077 0 384 171.923 384 384s-171.923 384-384 384c-212.077 0-384-171.923-384-384s171.923-384 384-384zM512 0c-247.424 0-448 200.576-448 448s200.576 448 448 448c247.424 0 448-200.576 448-448s-200.576-448-448-448zM544 448h192v-64h-256v288h64v-224z" />
<glyph unicode="&#xe90c;" glyph-name="comment" d="M153.6 243.2v512h716.8v-512h-226.26l-130.183-132.39-119.653 117.692-71.807-73.004 192.667-189.508 171.897 174.81h188.46c53.726 0 97.28 43.554 97.28 97.28v522.24c0 53.726-43.554 97.28-97.28 97.28h-727.040c-53.726 0-97.28-43.554-97.28-97.28v-522.24c0-53.726 43.554-97.28 97.28-97.28h158.72v102.4h-153.6zM256 550.4h102.4v-102.4h-102.4zM460.8 550.4h102.4v-102.4h-102.4zM665.6 550.4h102.4v-102.4h-102.4z" />
<glyph unicode="&#xe90d;" glyph-name="emoji" d="M512-21.333c259.206 0 469.333 210.128 469.333 469.333s-210.128 469.333-469.333 469.333c-259.206 0-469.333-210.128-469.333-469.333s210.128-469.333 469.333-469.333zM512-64c-282.77 0-512 229.23-512 512s229.23 512 512 512c282.77 0 512-229.23 512-512s-229.23-512-512-512zM512 112.835c-141.929 0-263.4 99.838-292.080 237.060l-5.368 25.682 594.937 0.36-5.336-25.688c-28.541-137.391-150.092-237.413-292.153-237.413zM512 155.502c112.695 0 210.346 73.464 243.632 177.736l-487.169-0.294c33.378-104.124 130.957-177.441 243.537-177.441zM320 469.333c-47.128 0-85.333 38.205-85.333 85.333s38.205 85.333 85.333 85.333c47.128 0 85.333-38.205 85.333-85.333s-38.205-85.333-85.333-85.333zM320 512c23.564 0 42.667 19.103 42.667 42.667s-19.103 42.667-42.667 42.667c-23.564 0-42.667-19.103-42.667-42.667s19.103-42.667 42.667-42.667zM704 469.333c-47.128 0-85.333 38.205-85.333 85.333s38.205 85.333 85.333 85.333c47.128 0 85.333-38.205 85.333-85.333s-38.205-85.333-85.333-85.333zM704 512c23.564 0 42.667 19.103 42.667 42.667s-19.103 42.667-42.667 42.667c-23.564 0-42.667-19.103-42.667-42.667s19.103-42.667 42.667-42.667z" />
<glyph unicode="&#xe90e;" glyph-name="female" d="M512 448c80.791 0 146.286 65.494 146.286 146.286s-65.494 146.286-146.286 146.286c-80.791 0-146.286-65.494-146.286-146.286s65.494-146.286 146.286-146.286zM438.857 310.932c-126.188 32.479-219.429 147.028-219.429 283.354 0 161.583 130.989 292.571 292.571 292.571s292.571-130.989 292.571-292.571c0-136.327-93.241-250.876-219.429-283.354v-82.36h146.286v-146.286h-146.286v-146.286h-146.286v146.286h-146.286v146.286h146.286v82.36z" />
<glyph unicode="&#xe90f;" glyph-name="good" d="M128 576h192v-448h-192v448zM384 128v640h192c35.346 0 64-28.654 64-64v-192h169.944c4.015 0 8.024-0.332 11.985-0.992 39.714-6.619 66.542-44.179 59.923-83.893l-39.7-238.2c-5.859-35.152-36.272-60.915-71.908-60.915h-386.244z" />
<glyph unicode="&#xe910;" glyph-name="keyboard" d="M512 917.333c-259.206 0-469.333-210.128-469.333-469.333s210.128-469.333 469.333-469.333c259.206 0 469.333 210.128 469.333 469.333s-210.128 469.333-469.333 469.333zM512 960c282.77 0 512-229.23 512-512s-229.23-512-512-512c-282.77 0-512 229.23-512 512s229.23 512 512 512zM256 618.667v-128h85.333v128h-85.333zM213.333 661.333h170.667v-213.333h-170.667v213.333zM213.333 405.333h170.667v-213.333h-170.667v213.333zM256 362.667v-128h85.333v128h-85.333zM426.667 661.333h170.667v-213.333h-170.667v213.333zM469.333 618.667v-128h85.333v128h-85.333zM640 661.333h170.667v-469.333h-384v213.333h213.333v256zM682.667 362.667h-213.333v-128h298.667v384h-85.333v-256z" />
<glyph unicode="&#xe911;" glyph-name="label" d="M580.267 815.185h289.631v-289.631l-434.446-434.446-289.631 289.631 434.446 434.446zM656.815 602.102c26.66-26.66 69.884-26.66 96.544 0s26.66 69.884 0 96.544c-26.66 26.66-69.884 26.66-96.544 0s-26.66-69.884 0-96.544z" />
<glyph unicode="&#xe912;" glyph-name="male" d="M438.857 82.286c80.791 0 146.286 65.494 146.286 146.286s-65.494 146.286-146.286 146.286c-80.791 0-146.286-65.494-146.286-146.286s65.494-146.286 146.286-146.286zM689.609 621.936l-66.451-166.127c66.058-53.643 108.271-135.51 108.271-227.237 0-161.583-130.989-292.571-292.571-292.571s-292.571 130.989-292.571 292.571c0 161.583 130.989 292.571 292.571 292.571 17.432 0 34.507-1.524 51.101-4.447l68.204 170.511-128.695-49.401-52.424 136.569 357.992 137.42 137.42-357.992-136.569-52.424-46.278 120.558z" />
<glyph unicode="&#xe913;" glyph-name="note" d="M800 448h64v-256c0-87.207-60.661-160-138.667-160h-426.667c-78.005 0-138.667 72.793-138.667 160v512c0 87.207 60.661 160 138.667 160h213.333v-64h-213.333c-39.815 0-74.667-41.822-74.667-96v-512c0-54.178 34.851-96 74.667-96h426.667c39.815 0 74.667 41.822 74.667 96v256zM916.215 813.588c37.49-37.49 37.49-98.274 0-135.765l-416.666-416.666h-135.765v135.765l416.666 416.666c37.49 37.49 98.274 37.49 135.765 0zM870.96 723.078c12.497 12.497 12.497 32.758 0 45.255s-32.758 12.497-45.255 0l-397.921-397.921v-45.255h45.255l397.921 397.921z" />
<glyph unicode="&#xe914;" glyph-name="options" d="M256 448c0-56.554-45.846-102.4-102.4-102.4s-102.4 45.846-102.4 102.4c0 56.554 45.846 102.4 102.4 102.4s102.4-45.846 102.4-102.4zM614.4 448c0-56.554-45.846-102.4-102.4-102.4s-102.4 45.846-102.4 102.4c0 56.554 45.846 102.4 102.4 102.4s102.4-45.846 102.4-102.4zM972.8 448c0-56.554-45.846-102.4-102.4-102.4s-102.4 45.846-102.4 102.4c0 56.554 45.846 102.4 102.4 102.4s102.4-45.846 102.4-102.4z" />
<glyph unicode="&#xe915;" glyph-name="pencil" d="M0 82.286h1024v-146.286h-1024v146.286zM723.316 945.613l103.44-103.44-568.918-568.918-155.159-51.72 51.72 155.159z" />
<glyph unicode="&#xe916;" glyph-name="publish" d="M813.107 829.56l80.453-80.453-455.111-455.111-97.115-16.662 16.662 97.115 455.111 455.111 40.227-97.115h-568.889c-31.419 0-56.889-25.47-56.889-56.889v-455.111c0-31.419 25.47-56.889 56.889-56.889h455.111c31.419 0 56.889 25.47 56.889 56.889v284.444l113.778 113.778v-398.222c0-94.257-76.41-170.667-170.667-170.667h-455.111c-94.257 0-170.667 76.41-170.667 170.667v455.111c0 94.257 76.41 170.667 170.667 170.667h568.889c50.683 0 76.065-61.277 40.227-97.115l-455.111-455.111-80.453 80.453 455.111 455.111z" />
<glyph unicode="&#xe917;" glyph-name="question" d="M307.2 960h409.6c169.662 0 307.2-137.538 307.2-307.2v-716.8h-716.8c-169.662 0-307.2 137.538-307.2 307.2v409.6c0 169.662 137.538 307.2 307.2 307.2zM256 704v-51.2h153.6v51.2h-153.6zM256 601.6v-409.6h51.2v409.6h-51.2zM716.8 652.8v-384c0-14.138-11.462-25.6-25.6-25.6h-76.8v-51.2h76.8c42.415 0 76.8 34.385 76.8 76.8v435.2h-307.2v-51.2h256zM409.6 550.4v-204.8h204.8v204.8h-204.8zM460.8 499.2h102.4v-102.4h-102.4v102.4z" />
<glyph unicode="&#xe918;" glyph-name="search" d="M448 64c-247.424 0-448 200.576-448 448s200.576 448 448 448c247.424 0 448-200.576 448-448s-200.576-448-448-448zM448 192c176.731 0 320 143.269 320 320s-143.269 320-320 320c-176.731 0-320-143.269-320-320s143.269-320 320-320zM786.745 82.745l90.51 90.51 128.071-128.071-90.51-90.51-128.071 128.071z" />
<glyph unicode="&#xe919;" glyph-name="share" d="M563.2 755.2h204.8c28.277 0 51.2-22.923 51.2-51.2v-204.8h102.4v204.8c0 84.831-68.769 153.6-153.6 153.6h-204.8v-102.4zM819.2 345.6v-166.4c0-21.208-17.192-38.4-38.4-38.4h-537.6c-21.208 0-38.4 17.192-38.4 38.4v537.6c0 21.208 17.192 38.4 38.4 38.4h166.4v102.4h-166.4c-77.762 0-140.8-63.038-140.8-140.8v-537.6c0-77.762 63.038-140.8 140.8-140.8h537.6c77.762 0 140.8 63.038 140.8 140.8v166.4h-102.4zM834.196 842.604l-512-512 72.408-72.408 512 512z" />
<glyph unicode="&#xe91a;" glyph-name="star" d="M291.172 103.751l220.828 116.096 220.828-116.096-42.174 245.895 178.653 174.144-246.893 35.876-110.414 223.723-110.414-223.723-246.893-35.876 178.653-174.144-42.174-245.895zM512 147.542l-305.828-160.783 58.408 340.544-247.42 241.175 341.926 49.685 152.914 309.838 152.914-309.838 341.926-49.685-247.42-241.175 58.408-340.544-305.828 160.783z" />
<glyph unicode="&#xe91b;" glyph-name="thumb-o-up" d="M153.6 140.8h102.4v358.4h-102.4v-358.4zM358.4 601.6v-563.2h-307.2v563.2h307.2zM716.8 601.6h139.641c4.041 0 8.078-0.224 12.094-0.67 60.116-6.68 103.435-60.828 96.756-120.945l-38.24-344.16c-6.163-55.465-53.044-97.426-108.85-97.426h-408.601v819.2h204.8c56.554 0 102.4-45.846 102.4-102.4v-153.6zM512 140.8h306.201c3.628 0 6.676 2.728 7.076 6.334l38.24 344.16c0.434 3.908-2.382 7.428-6.29 7.863-0.174 0.019-64.050 0.034-191.627 0.044h-51.2v256h-102.4v-614.4z" />
<glyph unicode="&#xe91c;" glyph-name="thumb-up-sm" d="M73.143 594.286h219.429v-512h-219.429zM365.714 82.286h439.742c41.461 0 76.613 30.487 82.477 71.532l49.339 345.371c6.507 45.551-25.144 87.752-70.695 94.259-3.903 0.558-7.84 0.837-11.782 0.837h-196.509v146.286c0 40.396-32.747 73.143-73.143 73.143h-219.429v-731.429z" />
<glyph unicode="&#xe91d;" glyph-name="thumb-up" d="M51.2 601.6h256v-563.2h-256v563.2zM358.4 38.4h458.741c30.163 0 55.35 23.001 58.080 53.040l36.226 398.489c5.12 56.322-36.387 106.13-92.709 111.25-3.082 0.28-6.176 0.421-9.271 0.421h-143.869v153.6c0 56.554-45.846 102.4-102.4 102.4h-204.8v-819.2z" />
<glyph unicode="&#xe91e;" glyph-name="trash" d="M480 864h64v-64h-64v64zM160 736h704v-64h-704v64zM288 608v-504c0-5.987 1.789-8 0-8h448c-1.789 0 0 2.013 0 8v504h64v-504c0-39.764-28.654-72-64-72h-448c-35.346 0-64 32.236-64 72v504h64zM384 544h64v-320h-64v320zM576 544h64v-320h-64v320z" />
<glyph unicode="&#xe91f;" glyph-name="video" d="M170.667 832c-70.692 0-128-57.308-128-128v-512c0-70.692 57.308-128 128-128h682.667c70.692 0 128 57.308 128 128v512c0 70.692-57.308 128-128 128h-682.667zM170.667 874.667h682.667c94.257 0 170.667-76.41 170.667-170.667v-512c0-94.257-76.41-170.667-170.667-170.667h-682.667c-94.257 0-170.667 76.41-170.667 170.667v512c0 94.257 76.41 170.667 170.667 170.667zM426.667 584.352v-272.704l218.163 136.352-218.163 136.352zM384 661.333l341.333-213.333-341.333-213.333v426.667z" />
</font>
</defs>
</svg>
